<svg width="512" height="512" version="1.1" xmlns="http://www.w3.org/2000/svg" desc="Created with imagetracer.js version 1.2.6" ><path fill="rgb(247,135,42)" stroke="rgb(247,135,42)" stroke-width="1" opacity="0.9725490196078431" d="M 120.5 40 Q 134.5 38.5 139 46.5 L 142 52.5 L 142 80 L 108 80 L 108 53.5 L 113.5 44 L 120.5 40 Z " /><path fill="rgb(247,135,42)" stroke="rgb(247,135,42)" stroke-width="1" opacity="0.9725490196078431" d="M 316.5 45 L 318.5 48 L 316.5 45 Z " /><path fill="rgb(247,135,42)" stroke="rgb(247,135,42)" stroke-width="1" opacity="0.9725490196078431" d="M 153.5 53 L 154 255.5 L 153 255.5 L 153.5 53 Z " /><path fill="rgb(247,135,42)" stroke="rgb(247,135,42)" stroke-width="1" opacity="0.9725490196078431" d="M 370 57 L 380.5 57 L 381 57.5 L 381 148 L 370.5 148 L 370 147.5 L 370 57 Z " /><path fill="rgb(247,135,42)" stroke="rgb(247,135,42)" stroke-width="1" opacity="0.9725490196078431" d="M 392.5 57 L 393 147.5 L 392 147.5 L 392.5 57 Z " /><path fill="rgb(247,135,42)" stroke="rgb(247,135,42)" stroke-width="1" opacity="0.9725490196078431" d="M 209.5 60 L 192.5 78 L 209.5 60 Z " /><path fill="rgb(247,135,42)" stroke="rgb(247,135,42)" stroke-width="1" opacity="0.9725490196078431" d="M 208.5 77 L 195.5 91 L 208.5 77 Z " /><path fill="rgb(247,135,42)" stroke="rgb(247,135,42)" stroke-width="1" opacity="0.9725490196078431" d="M 288.5 83 L 287.5 85 L 288.5 83 Z " /><path fill="rgb(247,135,42)" stroke="rgb(247,135,42)" stroke-width="1" opacity="0.9725490196078431" d="M 239.5 85 L 284 85.5 L 239.5 86 L 239.5 85 Z " /><path fill="rgb(247,135,42)" stroke="rgb(247,135,42)" stroke-width="1" opacity="0.9725490196078431" d="M 238.5 119 L 286 119.5 L 238.5 120 L 238.5 119 Z " /><path fill="rgb(247,135,42)" stroke="rgb(247,135,42)" stroke-width="1" opacity="0.9725490196078431" d="M 235.5 120 L 234.5 122 L 235.5 120 Z " /><path fill="rgb(247,135,42)" stroke="rgb(247,135,42)" stroke-width="1" opacity="0.9725490196078431" d="M 370 159 L 403.5 159 L 404 159.5 L 404 168.5 L 386.5 185 L 370 168.5 L 370 159 Z " /><path fill="rgb(247,135,42)" stroke="rgb(247,135,42)" stroke-width="1" opacity="0.9725490196078431" d="M 235.5 177 L 234.5 179 L 235.5 177 Z " /><path fill="rgb(247,135,42)" stroke="rgb(247,135,42)" stroke-width="1" opacity="0.9725490196078431" d="M 234.5 185 L 235.5 187 L 234.5 185 Z " /><path fill="rgb(247,135,42)" stroke="rgb(247,135,42)" stroke-width="1" opacity="0.9725490196078431" d="M 177.5 202 L 178.5 204 L 177.5 202 Z " /><path fill="rgb(247,135,42)" stroke="rgb(247,135,42)" stroke-width="1" opacity="0.9725490196078431" d="M 192.5 227 L 324 227.5 L 192.5 228 L 192.5 227 Z " /><path fill="rgb(247,135,42)" stroke="rgb(247,135,42)" stroke-width="1" opacity="0.9725490196078431" d="M 199 239 L 340.5 239 L 341 239.5 L 341 256.5 L 333.5 268 L 323.5 273 L 194 273 L 199 260.5 L 199 239 Z " /><path fill="rgb(23,14,13)" stroke="rgb(23,14,13)" stroke-width="1" opacity="0.8235294117647058" d="M 123.5 39 L 127 39.5 L 123.5 40 L 123.5 39 Z " /><path fill="rgb(23,14,13)" stroke="rgb(23,14,13)" stroke-width="1" opacity="0.8235294117647058" d="M 148.5 39 L 304 39.5 L 148.5 40 L 148.5 39 Z " /><path fill="rgb(23,14,13)" stroke="rgb(23,14,13)" stroke-width="1" opacity="0.8235294117647058" d="M 115.5 42 L 114.5 44 L 115.5 42 Z " /><path fill="rgb(23,14,13)" stroke="rgb(23,14,13)" stroke-width="1" opacity="0.8235294117647058" d="M 314.5 43 L 315.5 45 L 314.5 43 Z " /><path fill="rgb(23,14,13)" stroke="rgb(23,14,13)" stroke-width="1" opacity="0.8235294117647058" d="M 111.5 46 L 110.5 48 L 111.5 46 Z " /><path fill="rgb(23,14,13)" stroke="rgb(23,14,13)" stroke-width="1" opacity="0.8235294117647058" d="M 319.5 48 L 320.5 50 L 319.5 48 Z " /><path fill="rgb(23,14,13)" stroke="rgb(23,14,13)" stroke-width="1" opacity="0.8235294117647058" d="M 142.5 55 L 143 79.5 L 142 79.5 L 142.5 55 Z " /><path fill="rgb(23,14,13)" stroke="rgb(23,14,13)" stroke-width="1" opacity="0.8235294117647058" d="M 370.5 56 L 380.5 56 L 382 57.5 L 381.5 148 L 381 57 L 370.5 57 L 370 57.5 L 370 147.5 L 369 147.5 L 369 57.5 L 370.5 56 Z " /><path fill="rgb(23,14,13)" stroke="rgb(23,14,13)" stroke-width="1" opacity="0.8235294117647058" d="M 393.5 56 L 404 56.5 L 393.5 57 L 393.5 56 Z " /><path fill="rgb(23,14,13)" stroke="rgb(23,14,13)" stroke-width="1" opacity="0.8235294117647058" d="M 216.5 60 L 217.5 62 L 216.5 60 Z " /><path fill="rgb(23,14,13)" stroke="rgb(23,14,13)" stroke-width="1" opacity="0.8235294117647058" d="M 324.5 60 L 325 227.5 L 324 227.5 L 324.5 60 Z " /><path fill="rgb(23,14,13)" stroke="rgb(23,14,13)" stroke-width="1" opacity="0.8235294117647058" d="M 218.5 63 L 219 65.5 L 218 65.5 L 218.5 63 Z " /><path fill="rgb(23,14,13)" stroke="rgb(23,14,13)" stroke-width="1" opacity="0.8235294117647058" d="M 179.5 69 L 182 69.5 L 179.5 70 L 179.5 69 Z " /><path fill="rgb(23,14,13)" stroke="rgb(23,14,13)" stroke-width="1" opacity="0.8235294117647058" d="M 216.5 69 L 209.5 77 L 216.5 69 Z " /><path fill="rgb(23,14,13)" stroke="rgb(23,14,13)" stroke-width="1" opacity="0.8235294117647058" d="M 177.5 70 L 176.5 72 L 177.5 70 Z " /><path fill="rgb(23,14,13)" stroke="rgb(23,14,13)" stroke-width="1" opacity="0.8235294117647058" d="M 235.5 75 L 234.5 77 L 235.5 75 Z " /><path fill="rgb(23,14,13)" stroke="rgb(23,14,13)" stroke-width="1" opacity="0.8235294117647058" d="M 176.5 78 L 188.5 91 L 176.5 78 Z " /><path fill="rgb(23,14,13)" stroke="rgb(23,14,13)" stroke-width="1" opacity="0.8235294117647058" d="M 190.5 91 L 193 91.5 L 190.5 92 L 190.5 91 Z " /><path fill="rgb(23,14,13)" stroke="rgb(23,14,13)" stroke-width="1" opacity="0.8235294117647058" d="M 180.5 108 L 212 108.5 L 180.5 109 L 180.5 108 Z " /><path fill="rgb(23,14,13)" stroke="rgb(23,14,13)" stroke-width="1" opacity="0.8235294117647058" d="M 77.5 113 L 141.5 113 L 143 114.5 L 142.5 260 L 142 114 L 77.5 114 L 77.5 113 Z " /><path fill="rgb(23,14,13)" stroke="rgb(23,14,13)" stroke-width="1" opacity="0.8235294117647058" d="M 336.5 113 L 357.5 113 L 359 114.5 L 358.5 172 L 358 114 L 336.5 114 L 336 114.5 L 336 227.5 L 335 227.5 L 335 114.5 L 336.5 113 Z " /><path fill="rgb(23,14,13)" stroke="rgb(23,14,13)" stroke-width="1" opacity="0.8235294117647058" d="M 415.5 113 L 440 113.5 L 415.5 114 L 415.5 113 Z " /><path fill="rgb(23,14,13)" stroke="rgb(23,14,13)" stroke-width="1" opacity="0.8235294117647058" d="M 176.5 114 L 177 141.5 L 176 141.5 L 176.5 114 Z " /><path fill="rgb(23,14,13)" stroke="rgb(23,14,13)" stroke-width="1" opacity="0.8235294117647058" d="M 449.5 116 L 450.5 118 L 449.5 116 Z " /><path fill="rgb(23,14,13)" stroke="rgb(23,14,13)" stroke-width="1" opacity="0.8235294117647058" d="M 66.5 117 L 61.5 123 L 66.5 117 Z " /><path fill="rgb(23,14,13)" stroke="rgb(23,14,13)" stroke-width="1" opacity="0.8235294117647058" d="M 452.5 118 L 455.5 122 L 452.5 118 Z " /><path fill="rgb(23,14,13)" stroke="rgb(23,14,13)" stroke-width="1" opacity="0.8235294117647058" d="M 234.5 128 L 235.5 130 L 234.5 128 Z " /><path fill="rgb(23,14,13)" stroke="rgb(23,14,13)" stroke-width="1" opacity="0.8235294117647058" d="M 288.5 128 L 287.5 130 L 288.5 128 Z " /><path fill="rgb(23,14,13)" stroke="rgb(23,14,13)" stroke-width="1" opacity="0.8235294117647058" d="M 237.5 130 L 286 130.5 L 237.5 131 L 237.5 130 Z " /><path fill="rgb(23,14,13)" stroke="rgb(23,14,13)" stroke-width="1" opacity="0.8235294117647058" d="M 56.5 136 L 57 334.5 L 56 334.5 L 56.5 136 Z " /><path fill="rgb(23,14,13)" stroke="rgb(23,14,13)" stroke-width="1" opacity="0.8235294117647058" d="M 180.5 147 L 212 147.5 L 180.5 148 L 180.5 147 Z " /><path fill="rgb(23,14,13)" stroke="rgb(23,14,13)" stroke-width="1" opacity="0.8235294117647058" d="M 369.5 159 L 370 168.5 L 387 185.5 L 369 168.5 L 369.5 159 Z " /><path fill="rgb(23,14,13)" stroke="rgb(23,14,13)" stroke-width="1" opacity="0.8235294117647058" d="M 178.5 166 L 177.5 168 L 178.5 166 Z " /><path fill="rgb(23,14,13)" stroke="rgb(23,14,13)" stroke-width="1" opacity="0.8235294117647058" d="M 176.5 170 L 177 198.5 L 176 198.5 L 176.5 170 Z " /><path fill="rgb(23,14,13)" stroke="rgb(23,14,13)" stroke-width="1" opacity="0.8235294117647058" d="M 414.5 173 L 390.5 198 L 414.5 173 Z " /><path fill="rgb(23,14,13)" stroke="rgb(23,14,13)" stroke-width="1" opacity="0.8235294117647058" d="M 239.5 176 L 285 176.5 L 239.5 177 L 239.5 176 Z " /><path fill="rgb(23,14,13)" stroke="rgb(23,14,13)" stroke-width="1" opacity="0.8235294117647058" d="M 287.5 177 L 288.5 179 L 287.5 177 Z " /><path fill="rgb(23,14,13)" stroke="rgb(23,14,13)" stroke-width="1" opacity="0.8235294117647058" d="M 288.5 185 L 287.5 187 L 288.5 185 Z " /><path fill="rgb(23,14,13)" stroke="rgb(23,14,13)" stroke-width="1" opacity="0.8235294117647058" d="M 238.5 187 L 285 187.5 L 238.5 188 L 238.5 187 Z " /><path fill="rgb(23,14,13)" stroke="rgb(23,14,13)" stroke-width="1" opacity="0.8235294117647058" d="M 214.5 202 L 213.5 204 L 214.5 202 Z " /><path fill="rgb(23,14,13)" stroke="rgb(23,14,13)" stroke-width="1" opacity="0.8235294117647058" d="M 181.5 204 L 212 204.5 L 181.5 205 L 181.5 204 Z " /><path fill="rgb(23,14,13)" stroke="rgb(23,14,13)" stroke-width="1" opacity="0.8235294117647058" d="M 352.5 232 L 353 253.5 L 352 253.5 L 352.5 232 Z " /><path fill="rgb(23,14,13)" stroke="rgb(23,14,13)" stroke-width="1" opacity="0.8235294117647058" d="M 341.5 239 L 342 253.5 L 341 253.5 L 341.5 239 Z " /><path fill="rgb(23,14,13)" stroke="rgb(23,14,13)" stroke-width="1" opacity="0.8235294117647058" d="M 153.5 256 L 154 258.5 L 153 258.5 L 153.5 256 Z " /><path fill="rgb(23,14,13)" stroke="rgb(23,14,13)" stroke-width="1" opacity="0.8235294117647058" d="M 337.5 263 L 336.5 265 L 337.5 263 Z " /><path fill="rgb(23,14,13)" stroke="rgb(23,14,13)" stroke-width="1" opacity="0.8235294117647058" d="M 184.5 266 L 181.5 270 L 184.5 266 Z " /><path fill="rgb(23,14,13)" stroke="rgb(23,14,13)" stroke-width="1" opacity="0.8235294117647058" d="M 332.5 268 L 331.5 270 L 332.5 268 Z " /><path fill="rgb(23,14,13)" stroke="rgb(23,14,13)" stroke-width="1" opacity="0.8235294117647058" d="M 148.5 273 L 153.5 279 L 148.5 273 Z " /><path fill="rgb(23,14,13)" stroke="rgb(23,14,13)" stroke-width="1" opacity="0.8235294117647058" d="M 343.5 273 L 341.5 276 L 343.5 273 Z " /><path fill="rgb(23,14,13)" stroke="rgb(23,14,13)" stroke-width="1" opacity="0.8235294117647058" d="M 338.5 277 L 337.5 279 L 338.5 277 Z " /><path fill="rgb(23,14,13)" stroke="rgb(23,14,13)" stroke-width="1" opacity="0.8235294117647058" d="M 56.5 347 L 57 381.5 L 56 381.5 L 56.5 347 Z " /><path fill="rgb(23,14,13)" stroke="rgb(23,14,13)" stroke-width="1" opacity="0.8235294117647058" d="M 61.5 395 L 64.5 399 L 61.5 395 Z " /><path fill="rgb(23,14,13)" stroke="rgb(23,14,13)" stroke-width="1" opacity="0.8235294117647058" d="M 298.5 420 L 299.5 422 L 298.5 420 Z " /><path fill="rgb(23,14,13)" stroke="rgb(23,14,13)" stroke-width="1" opacity="0.8235294117647058" d="M 218.5 421 L 217.5 423 L 218.5 421 Z " /><path fill="rgb(23,14,13)" stroke="rgb(23,14,13)" stroke-width="1" opacity="0.8235294117647058" d="M 300.5 423 L 301.5 425 L 300.5 423 Z " /><path fill="rgb(23,14,13)" stroke="rgb(23,14,13)" stroke-width="1" opacity="0.8235294117647058" d="M 216.5 424 L 215.5 426 L 216.5 424 Z " /><path fill="rgb(23,14,13)" stroke="rgb(23,14,13)" stroke-width="1" opacity="0.8235294117647058" d="M 307.5 433 L 308.5 435 L 307.5 433 Z " /><path fill="rgb(23,14,13)" stroke="rgb(23,14,13)" stroke-width="1" opacity="0.8235294117647058" d="M 309.5 436 L 310.5 438 L 309.5 436 Z " /><path fill="rgb(23,14,13)" stroke="rgb(23,14,13)" stroke-width="1" opacity="0.8235294117647058" d="M 207.5 437 L 206.5 439 L 207.5 437 Z " /><path fill="rgb(23,14,13)" stroke="rgb(23,14,13)" stroke-width="1" opacity="0.8235294117647058" d="M 311.5 439 L 312.5 441 L 311.5 439 Z " /><path fill="rgb(23,14,13)" stroke="rgb(23,14,13)" stroke-width="1" opacity="0.8235294117647058" d="M 205.5 440 L 204.5 442 L 205.5 440 Z " /><path fill="rgb(23,14,13)" stroke="rgb(23,14,13)" stroke-width="1" opacity="0.8235294117647058" d="M 318.5 449 L 319.5 451 L 318.5 449 Z " /><path fill="rgb(23,14,13)" stroke="rgb(23,14,13)" stroke-width="1" opacity="0.8235294117647058" d="M 198.5 450 L 197.5 452 L 198.5 450 Z " /><path fill="rgb(23,14,13)" stroke="rgb(23,14,13)" stroke-width="1" opacity="0.8235294117647058" d="M 320.5 452 L 321.5 454 L 320.5 452 Z " /><path fill="rgb(23,14,13)" stroke="rgb(23,14,13)" stroke-width="1" opacity="0.8235294117647058" d="M 196.5 453 L 196.5 455 L 322 455.5 L 196.5 456 Q 193.5 454.5 196.5 453 Z " /><path fill="rgb(0,0,0)" stroke="rgb(0,0,0)" stroke-width="1" opacity="0.27450980392156865" d="M 363.5 22 L 411 22.5 L 363.5 23 L 363.5 22 Z " /><path fill="rgb(0,0,0)" stroke="rgb(0,0,0)" stroke-width="1" opacity="0.27450980392156865" d="M 358.5 26 L 359 101.5 L 357.5 103 L 336.5 103 L 336.5 102 L 357.5 102 L 358 101.5 L 358.5 26 Z " /><path fill="rgb(0,0,0)" stroke="rgb(0,0,0)" stroke-width="1" opacity="0.27450980392156865" d="M 415.5 27 L 416 102 L 443 102.5 L 416.5 103 L 415 101.5 L 415.5 27 Z " /><path fill="rgb(0,0,0)" stroke="rgb(0,0,0)" stroke-width="1" opacity="0.27450980392156865" d="M 120.5 28 L 307 28.5 L 120.5 29 L 120.5 28 Z " /><path fill="rgb(0,0,0)" stroke="rgb(0,0,0)" stroke-width="1" opacity="0.27450980392156865" d="M 108.5 33 L 102.5 40 L 108.5 33 Z " /><path fill="rgb(0,0,0)" stroke="rgb(0,0,0)" stroke-width="1" opacity="0.27450980392156865" d="M 322.5 35 L 324.5 38 L 322.5 35 Z " /><path fill="rgb(0,0,0)" stroke="rgb(0,0,0)" stroke-width="1" opacity="0.27450980392156865" d="M 326.5 39 L 328.5 42 L 326.5 39 Z " /><path fill="rgb(0,0,0)" stroke="rgb(0,0,0)" stroke-width="1" opacity="0.27450980392156865" d="M 370.5 45 L 404 45.5 L 370.5 46 L 370.5 45 Z " /><path fill="rgb(0,0,0)" stroke="rgb(0,0,0)" stroke-width="1" opacity="0.27450980392156865" d="M 96.5 54 L 97 86.5 L 96 86.5 L 96.5 54 Z " /><path fill="rgb(0,0,0)" stroke="rgb(0,0,0)" stroke-width="1" opacity="0.27450980392156865" d="M 335.5 57 L 336 62.5 L 335 62.5 L 335.5 57 Z " /><path fill="rgb(0,0,0)" stroke="rgb(0,0,0)" stroke-width="1" opacity="0.27450980392156865" d="M 97.5 88 L 99.5 91 L 97.5 88 Z " /><path fill="rgb(0,0,0)" stroke="rgb(0,0,0)" stroke-width="1" opacity="0.27450980392156865" d="M 74.5 102 L 142 102.5 L 74.5 103 L 74.5 102 Z " /><path fill="rgb(0,0,0)" stroke="rgb(0,0,0)" stroke-width="1" opacity="0.27450980392156865" d="M 456.5 107 L 457.5 109 L 456.5 107 Z " /><path fill="rgb(0,0,0)" stroke="rgb(0,0,0)" stroke-width="1" opacity="0.27450980392156865" d="M 58.5 109 L 52.5 116 L 58.5 109 Z " /><path fill="rgb(0,0,0)" stroke="rgb(0,0,0)" stroke-width="1" opacity="0.27450980392156865" d="M 460.5 110 L 464.5 115 L 460.5 110 Z " /><path fill="rgb(0,0,0)" stroke="rgb(0,0,0)" stroke-width="1" opacity="0.27450980392156865" d="M 465.5 116 L 466.5 118 L 465.5 116 Z " /><path fill="rgb(0,0,0)" stroke="rgb(0,0,0)" stroke-width="1" opacity="0.27450980392156865" d="M 188.5 119 L 205 119 L 205 137 L 188 136.5 L 204 136 L 204 120 L 188.5 120 L 188.5 119 Z " /><path fill="rgb(0,0,0)" stroke="rgb(0,0,0)" stroke-width="1" opacity="0.27450980392156865" d="M 467.5 119 L 468.5 121 L 467.5 119 Z " /><path fill="rgb(0,0,0)" stroke="rgb(0,0,0)" stroke-width="1" opacity="0.27450980392156865" d="M 471.5 128 L 472 130.5 L 471 130.5 L 471.5 128 Z " /><path fill="rgb(0,0,0)" stroke="rgb(0,0,0)" stroke-width="1" opacity="0.27450980392156865" d="M 45.5 132 L 46 385.5 L 45 385.5 L 45.5 132 Z " /><path fill="rgb(0,0,0)" stroke="rgb(0,0,0)" stroke-width="1" opacity="0.27450980392156865" d="M 472.5 136 L 473 381.5 L 472 381.5 L 472.5 136 Z " /><path fill="rgb(0,0,0)" stroke="rgb(0,0,0)" stroke-width="1" opacity="0.27450980392156865" d="M 188.5 176 L 205 176 L 205 192.5 L 203.5 194 L 188.5 194 L 188.5 193 L 204 193 L 204 177 L 188.5 177 L 188.5 176 Z " /><path fill="rgb(0,0,0)" stroke="rgb(0,0,0)" stroke-width="1" opacity="0.27450980392156865" d="M 50.5 399 L 51.5 401 L 50.5 399 Z " /><path fill="rgb(0,0,0)" stroke="rgb(0,0,0)" stroke-width="1" opacity="0.27450980392156865" d="M 466.5 400 L 464.5 403 L 466.5 400 Z " /><path fill="rgb(0,0,0)" stroke="rgb(0,0,0)" stroke-width="1" opacity="0.27450980392156865" d="M 53.5 403 L 57.5 408 L 53.5 403 Z " /><path fill="rgb(0,0,0)" stroke="rgb(0,0,0)" stroke-width="1" opacity="0.27450980392156865" d="M 458.5 408 L 457.5 410 L 458.5 408 Z " /><path fill="rgb(0,0,0)" stroke="rgb(0,0,0)" stroke-width="1" opacity="0.27450980392156865" d="M 62.5 410 L 63.5 412 L 62.5 410 Z " /><path fill="rgb(0,0,0)" stroke="rgb(0,0,0)" stroke-width="1" opacity="0.27450980392156865" d="M 77.5 415 L 209 415.5 L 77.5 416 L 77.5 415 Z " /><path fill="rgb(0,0,0)" stroke="rgb(0,0,0)" stroke-width="1" opacity="0.27450980392156865" d="M 309 415 L 441 415.5 L 310 416.5 L 310.5 418 L 309 415 Z " /><path fill="rgb(0,0,0)" stroke="rgb(0,0,0)" stroke-width="1" opacity="0.27450980392156865" d="M 207.5 417 L 206.5 419 L 207.5 417 Z " /><path fill="rgb(0,0,0)" stroke="rgb(0,0,0)" stroke-width="1" opacity="0.27450980392156865" d="M 311.5 419 L 312.5 421 L 311.5 419 Z " /><path fill="rgb(0,0,0)" stroke="rgb(0,0,0)" stroke-width="1" opacity="0.27450980392156865" d="M 205.5 420 L 204.5 422 L 205.5 420 Z " /><path fill="rgb(0,0,0)" stroke="rgb(0,0,0)" stroke-width="1" opacity="0.27450980392156865" d="M 313.5 422 L 314.5 424 L 313.5 422 Z " /><path fill="rgb(0,0,0)" stroke="rgb(0,0,0)" stroke-width="1" opacity="0.27450980392156865" d="M 203.5 423 L 202.5 425 L 203.5 423 Z " /><path fill="rgb(0,0,0)" stroke="rgb(0,0,0)" stroke-width="1" opacity="0.27450980392156865" d="M 318.5 429 L 319.5 431 L 318.5 429 Z " /><path fill="rgb(0,0,0)" stroke="rgb(0,0,0)" stroke-width="1" opacity="0.27450980392156865" d="M 320.5 432 L 321.5 434 L 320.5 432 Z " /><path fill="rgb(0,0,0)" stroke="rgb(0,0,0)" stroke-width="1" opacity="0.27450980392156865" d="M 196.5 433 L 195.5 435 L 196.5 433 Z " /><path fill="rgb(0,0,0)" stroke="rgb(0,0,0)" stroke-width="1" opacity="0.27450980392156865" d="M 322.5 435 L 323.5 437 L 322.5 435 Z " /><path fill="rgb(0,0,0)" stroke="rgb(0,0,0)" stroke-width="1" opacity="0.27450980392156865" d="M 194.5 436 L 193.5 438 L 194.5 436 Z " /><path fill="rgb(0,0,0)" stroke="rgb(0,0,0)" stroke-width="1" opacity="0.27450980392156865" d="M 324.5 438 L 325.5 440 L 324.5 438 Z " /><path fill="rgb(0,0,0)" stroke="rgb(0,0,0)" stroke-width="1" opacity="0.27450980392156865" d="M 192.5 439 L 191.5 441 L 192.5 439 Z " /><path fill="rgb(0,0,0)" stroke="rgb(0,0,0)" stroke-width="1" opacity="0.27450980392156865" d="M 329.5 445 L 330.5 447 L 329.5 445 Z " /><path fill="rgb(0,0,0)" stroke="rgb(0,0,0)" stroke-width="1" opacity="0.27450980392156865" d="M 187.5 446 L 186.5 448 L 187.5 446 Z " /><path fill="rgb(0,0,0)" stroke="rgb(0,0,0)" stroke-width="1" opacity="0.27450980392156865" d="M 331.5 448 L 332.5 450 L 331.5 448 Z " /><path fill="rgb(0,0,0)" stroke="rgb(0,0,0)" stroke-width="1" opacity="0.27450980392156865" d="M 185.5 449 L 184.5 451 L 185.5 449 Z " /><path fill="rgb(0,0,0)" stroke="rgb(0,0,0)" stroke-width="1" opacity="0.27450980392156865" d="M 333.5 451 L 334.5 453 L 333.5 451 Z " /><path fill="rgb(0,0,0)" stroke="rgb(0,0,0)" stroke-width="1" opacity="0.27450980392156865" d="M 183.5 452 L 182.5 454 L 183.5 452 Z " /><path fill="rgb(0,0,0)" stroke="rgb(0,0,0)" stroke-width="1" opacity="0.27450980392156865" d="M 145.5 455 L 148 455.5 L 145.5 456 L 145.5 455 Z " /><path fill="rgb(0,0,0)" stroke="rgb(0,0,0)" stroke-width="1" opacity="0.27450980392156865" d="M 364.5 455 L 367 455.5 L 364.5 456 L 364.5 455 Z " /><path fill="rgb(0,0,0)" stroke="rgb(0,0,0)" stroke-width="1" opacity="0.27450980392156865" d="M 134.5 463 L 133.5 465 L 134.5 463 Z " /><path fill="rgb(0,0,0)" stroke="rgb(0,0,0)" stroke-width="1" opacity="0.27450980392156865" d="M 377.5 463 L 378.5 465 L 377.5 463 Z " /><path fill="rgb(0,0,0)" stroke="rgb(0,0,0)" stroke-width="1" opacity="0.27450980392156865" d="M 133.5 485 L 134.5 487 L 133.5 485 Z " /><path fill="rgb(0,0,0)" stroke="rgb(0,0,0)" stroke-width="1" opacity="0.27450980392156865" d="M 378.5 485 L 377.5 487 L 378.5 485 Z " /><path fill="rgb(0,0,0)" stroke="rgb(0,0,0)" stroke-width="1" opacity="0.996078431372549" d="M 360.5 24 L 359.5 26 L 360.5 24 Z " /><path fill="rgb(0,0,0)" stroke="rgb(0,0,0)" stroke-width="1" opacity="0.996078431372549" d="M 109.5 33 L 108.5 35 L 109.5 33 Z " /><path fill="rgb(0,0,0)" stroke="rgb(0,0,0)" stroke-width="1" opacity="0.996078431372549" d="M 320.5 34 L 322.5 37 L 320.5 34 Z " /><path fill="rgb(0,0,0)" stroke="rgb(0,0,0)" stroke-width="1" opacity="0.996078431372549" d="M 369.5 34 L 370 45.5 L 369 45.5 L 369.5 34 Z " /><path fill="rgb(0,0,0)" stroke="rgb(0,0,0)" stroke-width="1" opacity="0.996078431372549" d="M 102.5 40 L 101.5 42 L 102.5 40 Z " /><path fill="rgb(0,0,0)" stroke="rgb(0,0,0)" stroke-width="1" opacity="0.996078431372549" d="M 327.5 41 L 329.5 44 L 327.5 41 Z " /><path fill="rgb(0,0,0)" stroke="rgb(0,0,0)" stroke-width="1" opacity="0.996078431372549" d="M 136.5 43 L 138.5 46 L 136.5 43 Z " /><path fill="rgb(0,0,0)" stroke="rgb(0,0,0)" stroke-width="1" opacity="0.996078431372549" d="M 317.5 45 L 318.5 47 L 317.5 45 Z " /><path fill="rgb(0,0,0)" stroke="rgb(0,0,0)" stroke-width="1" opacity="0.996078431372549" d="M 335.5 63 L 336 102.5 L 335 102.5 L 335.5 63 Z " /><path fill="rgb(0,0,0)" stroke="rgb(0,0,0)" stroke-width="1" opacity="0.996078431372549" d="M 184.5 71 L 191.5 79 L 184.5 71 Z " /><path fill="rgb(0,0,0)" stroke="rgb(0,0,0)" stroke-width="1" opacity="0.996078431372549" d="M 287.5 75 L 288.5 77 L 287.5 75 Z " /><path fill="rgb(0,0,0)" stroke="rgb(0,0,0)" stroke-width="1" opacity="0.996078431372549" d="M 97.5 87 L 102 90.5 L 100.5 91 L 97.5 87 Z " /><path fill="rgb(0,0,0)" stroke="rgb(0,0,0)" stroke-width="1" opacity="0.996078431372549" d="M 142.5 91 L 143 102.5 L 142 102.5 L 142.5 91 Z " /><path fill="rgb(0,0,0)" stroke="rgb(0,0,0)" stroke-width="1" opacity="0.996078431372549" d="M 455.5 107 L 456.5 109 L 455.5 107 Z " /><path fill="rgb(0,0,0)" stroke="rgb(0,0,0)" stroke-width="1" opacity="0.996078431372549" d="M 60.5 108 L 58.5 111 L 60.5 108 Z " /><path fill="rgb(0,0,0)" stroke="rgb(0,0,0)" stroke-width="1" opacity="0.996078431372549" d="M 458.5 109 L 464.5 116 L 458.5 109 Z " /><path fill="rgb(0,0,0)" stroke="rgb(0,0,0)" stroke-width="1" opacity="0.996078431372549" d="M 53.5 115 L 51.5 118 L 53.5 115 Z " /><path fill="rgb(0,0,0)" stroke="rgb(0,0,0)" stroke-width="1" opacity="0.996078431372549" d="M 187.5 119 L 188 136.5 L 187 136.5 L 187.5 119 Z " /><path fill="rgb(0,0,0)" stroke="rgb(0,0,0)" stroke-width="1" opacity="0.996078431372549" d="M 467.5 120 L 469 122.5 L 468 122.5 L 467.5 120 Z " /><path fill="rgb(0,0,0)" stroke="rgb(0,0,0)" stroke-width="1" opacity="0.996078431372549" d="M 235.5 121 L 234.5 123 L 235.5 121 Z " /><path fill="rgb(0,0,0)" stroke="rgb(0,0,0)" stroke-width="1" opacity="0.996078431372549" d="M 213.5 166 L 214.5 168 L 213.5 166 Z " /><path fill="rgb(0,0,0)" stroke="rgb(0,0,0)" stroke-width="1" opacity="0.996078431372549" d="M 403.5 169 L 387.5 186 L 403.5 169 Z " /><path fill="rgb(0,0,0)" stroke="rgb(0,0,0)" stroke-width="1" opacity="0.996078431372549" d="M 360.5 174 L 383.5 198 L 360.5 174 Z " /><path fill="rgb(0,0,0)" stroke="rgb(0,0,0)" stroke-width="1" opacity="0.996078431372549" d="M 187.5 176 L 188 193.5 L 187 193.5 L 187.5 176 Z " /><path fill="rgb(0,0,0)" stroke="rgb(0,0,0)" stroke-width="1" opacity="0.996078431372549" d="M 350.5 229 L 351.5 231 L 350.5 229 Z " /><path fill="rgb(0,0,0)" stroke="rgb(0,0,0)" stroke-width="1" opacity="0.996078431372549" d="M 199.5 238 L 342 238.5 L 199.5 239 L 199.5 238 Z " /><path fill="rgb(0,0,0)" stroke="rgb(0,0,0)" stroke-width="1" opacity="0.996078431372549" d="M 156.5 266 L 157.5 268 L 156.5 266 Z " /><path fill="rgb(0,0,0)" stroke="rgb(0,0,0)" stroke-width="1" opacity="0.996078431372549" d="M 345.5 270 L 344.5 272 L 345.5 270 Z " /><path fill="rgb(0,0,0)" stroke="rgb(0,0,0)" stroke-width="1" opacity="0.996078431372549" d="M 193.5 273 L 320 273.5 L 193.5 274 L 193.5 273 Z " /><path fill="rgb(0,0,0)" stroke="rgb(0,0,0)" stroke-width="1" opacity="0.996078431372549" d="M 224.5 371 L 223.5 373 L 224.5 371 Z " /><path fill="rgb(0,0,0)" stroke="rgb(0,0,0)" stroke-width="1" opacity="0.996078431372549" d="M 287.5 371 L 288.5 373 L 287.5 371 Z " /><path fill="rgb(0,0,0)" stroke="rgb(0,0,0)" stroke-width="1" opacity="0.996078431372549" d="M 223.5 378 L 224.5 380 L 223.5 378 Z " /><path fill="rgb(0,0,0)" stroke="rgb(0,0,0)" stroke-width="1" opacity="0.996078431372549" d="M 288.5 378 L 287.5 380 L 288.5 378 Z " /><path fill="rgb(0,0,0)" stroke="rgb(0,0,0)" stroke-width="1" opacity="0.996078431372549" d="M 471.5 384 L 472 386.5 L 471 386.5 L 471.5 384 Z " /><path fill="rgb(0,0,0)" stroke="rgb(0,0,0)" stroke-width="1" opacity="0.996078431372549" d="M 46.5 386 L 47 388.5 L 46 388.5 L 46.5 386 Z " /><path fill="rgb(0,0,0)" stroke="rgb(0,0,0)" stroke-width="1" opacity="0.996078431372549" d="M 456.5 395 L 452.5 400 L 456.5 395 Z " /><path fill="rgb(0,0,0)" stroke="rgb(0,0,0)" stroke-width="1" opacity="0.996078431372549" d="M 50.5 398 L 51.5 400 L 50.5 398 Z " /><path fill="rgb(0,0,0)" stroke="rgb(0,0,0)" stroke-width="1" opacity="0.996078431372549" d="M 65.5 399 L 66.5 401 L 65.5 399 Z " /><path fill="rgb(0,0,0)" stroke="rgb(0,0,0)" stroke-width="1" opacity="0.996078431372549" d="M 466.5 399 L 465.5 401 L 466.5 399 Z " /><path fill="rgb(0,0,0)" stroke="rgb(0,0,0)" stroke-width="1" opacity="0.996078431372549" d="M 52.5 401 L 59.5 409 L 52.5 401 Z " /><path fill="rgb(0,0,0)" stroke="rgb(0,0,0)" stroke-width="1" opacity="0.996078431372549" d="M 463.5 403 L 459.5 408 L 463.5 403 Z " /><path fill="rgb(0,0,0)" stroke="rgb(0,0,0)" stroke-width="1" opacity="0.996078431372549" d="M 457.5 408 L 456.5 410 L 457.5 408 Z " /><path fill="rgb(0,0,0)" stroke="rgb(0,0,0)" stroke-width="1" opacity="0.996078431372549" d="M 63.5 410 L 68 412.5 L 66.5 413 L 63.5 410 Z " /><path fill="rgb(0,0,0)" stroke="rgb(0,0,0)" stroke-width="1" opacity="0.996078431372549" d="M 73.5 414 L 76 414.5 L 73.5 415 L 73.5 414 Z " /><path fill="rgb(0,0,0)" stroke="rgb(0,0,0)" stroke-width="1" opacity="0.996078431372549" d="M 442.5 414 L 445 414.5 L 442.5 415 L 442.5 414 Z " /><path fill="rgb(0,0,0)" stroke="rgb(0,0,0)" stroke-width="1" opacity="0.996078431372549" d="M 209.5 415 L 208.5 417 L 209.5 415 Z " /><path fill="rgb(0,0,0)" stroke="rgb(0,0,0)" stroke-width="1" opacity="0.996078431372549" d="M 309.5 417 L 310.5 419 L 309.5 417 Z " /><path fill="rgb(0,0,0)" stroke="rgb(0,0,0)" stroke-width="1" opacity="0.996078431372549" d="M 207.5 418 L 206.5 420 L 207.5 418 Z " /><path fill="rgb(0,0,0)" stroke="rgb(0,0,0)" stroke-width="1" opacity="0.996078431372549" d="M 311.5 420 L 312.5 422 L 311.5 420 Z " /><path fill="rgb(0,0,0)" stroke="rgb(0,0,0)" stroke-width="1" opacity="0.996078431372549" d="M 205.5 421 L 204.5 423 L 205.5 421 Z " /><path fill="rgb(0,0,0)" stroke="rgb(0,0,0)" stroke-width="1" opacity="0.996078431372549" d="M 313.5 423 L 315.5 426 L 313.5 423 Z " /><path fill="rgb(0,0,0)" stroke="rgb(0,0,0)" stroke-width="1" opacity="0.996078431372549" d="M 203.5 424 L 201.5 427 L 203.5 424 Z " /><path fill="rgb(0,0,0)" stroke="rgb(0,0,0)" stroke-width="1" opacity="0.996078431372549" d="M 316.5 427 L 317.5 429 L 316.5 427 Z " /><path fill="rgb(0,0,0)" stroke="rgb(0,0,0)" stroke-width="1" opacity="0.996078431372549" d="M 200.5 428 L 199.5 430 L 200.5 428 Z " /><path fill="rgb(0,0,0)" stroke="rgb(0,0,0)" stroke-width="1" opacity="0.996078431372549" d="M 318.5 430 L 319.5 432 L 318.5 430 Z " /><path fill="rgb(0,0,0)" stroke="rgb(0,0,0)" stroke-width="1" opacity="0.996078431372549" d="M 198.5 431 L 197.5 433 L 198.5 431 Z " /><path fill="rgb(0,0,0)" stroke="rgb(0,0,0)" stroke-width="1" opacity="0.996078431372549" d="M 320.5 433 L 321.5 435 L 320.5 433 Z " /><path fill="rgb(0,0,0)" stroke="rgb(0,0,0)" stroke-width="1" opacity="0.996078431372549" d="M 196.5 434 L 195.5 436 L 196.5 434 Z " /><path fill="rgb(0,0,0)" stroke="rgb(0,0,0)" stroke-width="1" opacity="0.996078431372549" d="M 208.5 435 L 207.5 437 L 208.5 435 Z " /><path fill="rgb(0,0,0)" stroke="rgb(0,0,0)" stroke-width="1" opacity="0.996078431372549" d="M 322.5 436 L 323.5 438 L 322.5 436 Z " /><path fill="rgb(0,0,0)" stroke="rgb(0,0,0)" stroke-width="1" opacity="0.996078431372549" d="M 194.5 437 L 193.5 439 L 194.5 437 Z " /><path fill="rgb(0,0,0)" stroke="rgb(0,0,0)" stroke-width="1" opacity="0.996078431372549" d="M 192.5 440 L 190.5 443 L 192.5 440 Z " /><path fill="rgb(0,0,0)" stroke="rgb(0,0,0)" stroke-width="1" opacity="0.996078431372549" d="M 325.5 440 L 326.5 442 L 325.5 440 Z " /><path fill="rgb(0,0,0)" stroke="rgb(0,0,0)" stroke-width="1" opacity="0.996078431372549" d="M 327.5 443 L 328.5 445 L 327.5 443 Z " /><path fill="rgb(0,0,0)" stroke="rgb(0,0,0)" stroke-width="1" opacity="0.996078431372549" d="M 189.5 444 L 188.5 446 L 189.5 444 Z " /><path fill="rgb(0,0,0)" stroke="rgb(0,0,0)" stroke-width="1" opacity="0.996078431372549" d="M 329.5 446 L 330.5 448 L 329.5 446 Z " /><path fill="rgb(0,0,0)" stroke="rgb(0,0,0)" stroke-width="1" opacity="0.996078431372549" d="M 187.5 447 L 186.5 449 L 187.5 447 Z " /><path fill="rgb(0,0,0)" stroke="rgb(0,0,0)" stroke-width="1" opacity="0.996078431372549" d="M 331.5 449 L 332.5 451 L 331.5 449 Z " /><path fill="rgb(0,0,0)" stroke="rgb(0,0,0)" stroke-width="1" opacity="0.996078431372549" d="M 185.5 450 L 184.5 452 L 185.5 450 Z " /><path fill="rgb(0,0,0)" stroke="rgb(0,0,0)" stroke-width="1" opacity="0.996078431372549" d="M 333.5 452 L 334.5 454 L 333.5 452 Z " /><path fill="rgb(0,0,0)" stroke="rgb(0,0,0)" stroke-width="1" opacity="0.996078431372549" d="M 183.5 453 L 181.5 456 L 148 455.5 L 181.5 455 L 183.5 453 Z " /><path fill="rgb(0,0,0)" stroke="rgb(0,0,0)" stroke-width="1" opacity="0.996078431372549" d="M 336.5 455 L 364 455.5 L 336.5 456 L 336.5 455 Z " /><path fill="rgb(0,0,0)" stroke="rgb(0,0,0)" stroke-width="1" opacity="0.996078431372549" d="M 138.5 459 L 135.5 463 L 138.5 459 Z " /><path fill="rgb(0,0,0)" stroke="rgb(0,0,0)" stroke-width="1" opacity="0.996078431372549" d="M 373.5 459 L 376.5 463 L 373.5 459 Z " /><path fill="rgb(0,0,0)" stroke="rgb(0,0,0)" stroke-width="1" opacity="0.996078431372549" d="M 134.5 464 L 133.5 466 L 134.5 464 Z " /><path fill="rgb(0,0,0)" stroke="rgb(0,0,0)" stroke-width="1" opacity="0.996078431372549" d="M 377.5 464 L 378.5 466 L 377.5 464 Z " /><path fill="rgb(0,0,0)" stroke="rgb(0,0,0)" stroke-width="1" opacity="0.996078431372549" d="M 145.5 467 L 143.5 470 L 145.5 467 Z " /><path fill="rgb(0,0,0)" stroke="rgb(0,0,0)" stroke-width="1" opacity="0.996078431372549" d="M 366.5 467 L 368.5 470 L 366.5 467 Z " /><path fill="rgb(0,0,0)" stroke="rgb(0,0,0)" stroke-width="1" opacity="0.996078431372549" d="M 143.5 480 L 145.5 483 L 143.5 480 Z " /><path fill="rgb(0,0,0)" stroke="rgb(0,0,0)" stroke-width="1" opacity="0.996078431372549" d="M 368.5 480 L 366.5 483 L 368.5 480 Z " /><path fill="rgb(0,0,0)" stroke="rgb(0,0,0)" stroke-width="1" opacity="0.996078431372549" d="M 133.5 484 L 134.5 486 L 133.5 484 Z " /><path fill="rgb(0,0,0)" stroke="rgb(0,0,0)" stroke-width="1" opacity="0.996078431372549" d="M 378.5 484 L 377.5 486 L 378.5 484 Z " /><path fill="rgb(0,0,0)" stroke="rgb(0,0,0)" stroke-width="1" opacity="0.996078431372549" d="M 135.5 487 L 138.5 491 L 135.5 487 Z " /><path fill="rgb(0,0,0)" stroke="rgb(0,0,0)" stroke-width="1" opacity="0.996078431372549" d="M 376.5 487 L 373.5 491 L 376.5 487 Z " /><path fill="rgb(0,0,0)" stroke="rgb(0,0,0)" stroke-width="1" opacity="0.996078431372549" d="M 147.5 494 L 365 494.5 L 147.5 495 L 147.5 494 Z " /><path fill="rgb(0,0,0)" stroke="rgb(0,0,0)" stroke-width="1" opacity="0" d="M 0 0 L 512 0 L 512 512 L 0 512 L 0 0 Z M 364 22 L 358 27 L 358 102 L 358 102 L 336 102 L 336 58 Q 334 48 329 42 Q 321 31 307 28 L 121 28 L 109 33 Q 98 40 96 55 L 96 87 L 100 91 L 142 91 L 142 92 L 142 102 L 75 102 Q 65 104 59 109 Q 48 117 45 133 L 45 386 L 47 394 L 53 404 L 64 412 L 78 416 L 208 417 L 182 455 L 146 455 L 140 458 Q 133 462 131 470 Q 129 480 133 486 Q 137 492 146 495 L 367 495 L 373 492 Q 379 488 381 481 Q 383 470 379 465 Q 375 458 367 455 L 337 455 L 310 417 L 441 416 L 450 414 L 458 410 L 467 401 L 471 393 L 473 382 L 473 137 L 470 123 L 465 115 Q 459 106 448 103 L 443 102 L 416 102 L 416 28 L 415 26 L 411 22 L 364 22 Z " /><path fill="rgb(0,0,0)" stroke="rgb(0,0,0)" stroke-width="1" opacity="0" d="M 370 34 L 402.5 34 L 404 35.5 L 404 44.5 L 403.5 45 L 370 45 L 370 34 Z " /><path fill="rgb(0,0,0)" stroke="rgb(0,0,0)" stroke-width="1" opacity="0" d="M 188 120 L 204 120 L 204 136 L 188 136 L 188 120 Z " /><path fill="rgb(0,0,0)" stroke="rgb(0,0,0)" stroke-width="1" opacity="0" d="M 188 177 L 204 177 L 204 193 L 188 193 L 188 177 Z " /><path fill="rgb(116,45,199)" stroke="rgb(116,45,199)" stroke-width="1" opacity="0.996078431372549" d="M 57 347 L 460.5 347 L 461 347.5 L 461 383.5 Q 459.3 393.8 452.5 399 L 440.5 404 L 76.5 404 Q 66.1 401.9 61 394.5 L 57 385.5 L 57 347 Z M 226 370 L 223 371 L 222 374 L 223 380 L 226 381 L 287 381 L 289 380 L 290 378 L 289 371 L 287 370 L 226 370 Z " /><path fill="rgb(116,45,199)" stroke="rgb(116,45,199)" stroke-width="1" opacity="0.996078431372549" d="M 147.5 467 L 364.5 467 L 368 469.5 L 370 475.5 L 366.5 482 L 364.5 483 L 147.5 483 L 144 480.5 L 142 474.5 L 144 469 L 147.5 467 Z " /><path fill="rgb(254,204,55)" stroke="rgb(254,204,55)" stroke-width="1" opacity="0.996078431372549" d="M 148.5 40 L 149.5 42 L 148.5 40 Z " /><path fill="rgb(254,204,55)" stroke="rgb(254,204,55)" stroke-width="1" opacity="0.996078431372549" d="M 313.5 43 L 314.5 45 L 313.5 43 Z " /><path fill="rgb(254,204,55)" stroke="rgb(254,204,55)" stroke-width="1" opacity="0.996078431372549" d="M 403.5 57 L 404 148 L 393 147.5 L 403 147 L 403.5 57 Z " /><path fill="rgb(254,204,55)" stroke="rgb(254,204,55)" stroke-width="1" opacity="0.996078431372549" d="M 183.5 69 L 191.5 78 L 183.5 69 Z " /><path fill="rgb(254,204,55)" stroke="rgb(254,204,55)" stroke-width="1" opacity="0.996078431372549" d="M 239.5 73 L 284 73.5 L 239.5 74 L 239.5 73 Z " /><path fill="rgb(254,204,55)" stroke="rgb(254,204,55)" stroke-width="1" opacity="0.996078431372549" d="M 287.5 74 L 289.5 77 L 287.5 74 Z " /><path fill="rgb(254,204,55)" stroke="rgb(254,204,55)" stroke-width="1" opacity="0.996078431372549" d="M 233.5 82 L 235.5 85 L 233.5 82 Z " /><path fill="rgb(254,204,55)" stroke="rgb(254,204,55)" stroke-width="1" opacity="0.996078431372549" d="M 213.5 108 L 215.5 111 L 213.5 108 Z " /><path fill="rgb(254,204,55)" stroke="rgb(254,204,55)" stroke-width="1" opacity="0.996078431372549" d="M 216.5 113 L 217 142.5 L 216 142.5 L 216.5 113 Z " /><path fill="rgb(254,204,55)" stroke="rgb(254,204,55)" stroke-width="1" opacity="0.996078431372549" d="M 289.5 128 L 288.5 130 L 289.5 128 Z " /><path fill="rgb(254,204,55)" stroke="rgb(254,204,55)" stroke-width="1" opacity="0.996078431372549" d="M 215.5 145 L 213.5 148 L 215.5 145 Z " /><path fill="rgb(254,204,55)" stroke="rgb(254,204,55)" stroke-width="1" opacity="0.996078431372549" d="M 216.5 169 L 217 199.5 L 216 199.5 L 216.5 169 Z " /><path fill="rgb(254,204,55)" stroke="rgb(254,204,55)" stroke-width="1" opacity="0.996078431372549" d="M 289.5 185 L 288.5 187 L 289.5 185 Z " /><path fill="rgb(254,204,55)" stroke="rgb(254,204,55)" stroke-width="1" opacity="0.996078431372549" d="M 215.5 202 L 214.5 204 L 215.5 202 Z " /><path fill="rgb(254,204,55)" stroke="rgb(254,204,55)" stroke-width="1" opacity="0.996078431372549" d="M 187.5 232 L 188 256.5 L 187 256.5 L 187.5 232 Z " /><path fill="rgb(254,204,55)" stroke="rgb(254,204,55)" stroke-width="1" opacity="0.996078431372549" d="M 184.5 265 L 183.5 267 L 184.5 265 Z " /><path fill="rgb(254,204,55)" stroke="rgb(254,204,55)" stroke-width="1" opacity="0.996078431372549" d="M 157.5 266 L 159.5 269 L 157.5 266 Z " /><path fill="rgb(254,204,55)" stroke="rgb(254,204,55)" stroke-width="1" opacity="0.996078431372549" d="M 181.5 268 L 180.5 270 L 181.5 268 Z " /><path fill="rgb(255,205,56)" stroke="rgb(255,205,56)" stroke-width="1" opacity="1" d="M 149.5 40 L 304.5 40 Q 314.6 42.4 320 49.5 L 324 59.5 L 324 227 L 191.5 227 L 188 230.5 L 187 232.5 L 187 260.5 L 183 268 L 176.5 272 L 169.5 273 Q 160.3 271.3 156 264.5 L 154 259.5 L 154 51.5 L 149.5 40 Z M 211 59 L 193 77 L 184 69 Q 178 68 176 70 Q 174 72 175 78 L 190 92 L 195 92 L 219 68 L 219 63 Q 218 58 211 59 Z M 240 73 L 234 75 Q 232 77 233 83 L 238 86 L 286 86 L 288 85 L 291 80 L 290 77 L 288 74 L 284 73 L 240 73 Z M 180 108 L 176 112 L 176 145 L 180 148 L 214 148 L 217 143 L 217 114 L 216 111 L 214 108 L 180 108 Z M 238 119 L 233 123 Q 232 130 237 131 L 287 131 L 289 130 L 291 126 L 290 123 L 287 119 L 238 119 Z M 180 165 L 176 169 L 176 202 L 180 205 L 213 205 L 215 204 L 217 200 L 217 170 L 216 168 L 214 165 L 180 165 Z M 237 176 L 233 180 Q 232 187 237 188 L 287 188 L 289 187 L 291 183 L 289 177 L 287 176 L 237 176 Z " /><path fill="rgb(255,205,56)" stroke="rgb(255,205,56)" stroke-width="1" opacity="1" d="M 393 57 L 402.5 57 L 403 57.5 L 403 147 L 393.5 147 L 393 146.5 L 393 57 Z " /><path fill="rgb(83,22,143)" stroke="rgb(83,22,143)" stroke-width="1" opacity="0.9921568627450981" d="M 74.5 114 L 77 114.5 L 74.5 115 L 74.5 114 Z " /><path fill="rgb(83,22,143)" stroke="rgb(83,22,143)" stroke-width="1" opacity="0.9921568627450981" d="M 415.5 114 L 416 172.5 L 415 172.5 L 415.5 114 Z " /><path fill="rgb(83,22,143)" stroke="rgb(83,22,143)" stroke-width="1" opacity="0.9921568627450981" d="M 441.5 114 L 444 114.5 L 441.5 115 L 441.5 114 Z " /><path fill="rgb(83,22,143)" stroke="rgb(83,22,143)" stroke-width="1" opacity="0.9921568627450981" d="M 445.5 115 L 450 117.5 L 448.5 117 Q 444.7 116.7 445.5 115 Z " /><path fill="rgb(83,22,143)" stroke="rgb(83,22,143)" stroke-width="1" opacity="0.9921568627450981" d="M 67.5 117 L 65.5 120 L 67.5 117 Z " /><path fill="rgb(83,22,143)" stroke="rgb(83,22,143)" stroke-width="1" opacity="0.9921568627450981" d="M 451.5 118 L 456.5 124 L 451.5 118 Z " /><path fill="rgb(83,22,143)" stroke="rgb(83,22,143)" stroke-width="1" opacity="0.9921568627450981" d="M 62.5 122 L 60.5 125 L 62.5 122 Z " /><path fill="rgb(83,22,143)" stroke="rgb(83,22,143)" stroke-width="1" opacity="0.9921568627450981" d="M 57.5 131 L 58 133.5 L 57 133.5 L 57.5 131 Z " /><path fill="rgb(83,22,143)" stroke="rgb(83,22,143)" stroke-width="1" opacity="0.9921568627450981" d="M 460.5 133 L 461 336 L 57 335.5 L 460 335 L 460.5 133 Z " /><path fill="rgb(83,22,143)" stroke="rgb(83,22,143)" stroke-width="1" opacity="0.9921568627450981" d="M 358.5 172 L 384 198.5 L 358 173.5 L 358.5 172 Z " /><path fill="rgb(83,22,143)" stroke="rgb(83,22,143)" stroke-width="1" opacity="0.9921568627450981" d="M 414.5 174 L 390.5 199 L 389 198.5 L 414.5 174 Z " /><path fill="rgb(83,22,143)" stroke="rgb(83,22,143)" stroke-width="1" opacity="0.9921568627450981" d="M 336.5 227 L 349.5 227 L 353 230.5 L 352.5 232 L 349.5 228 L 336.5 228 L 336.5 227 Z " /><path fill="rgb(83,22,143)" stroke="rgb(83,22,143)" stroke-width="1" opacity="0.9921568627450981" d="M 352.5 254 L 353 256.5 L 352 256.5 L 352.5 254 Z " /><path fill="rgb(83,22,143)" stroke="rgb(83,22,143)" stroke-width="1" opacity="0.9921568627450981" d="M 142.5 260 L 143 262.5 L 142 262.5 L 142.5 260 Z " /><path fill="rgb(83,22,143)" stroke="rgb(83,22,143)" stroke-width="1" opacity="0.9921568627450981" d="M 144.5 267 L 146 269.5 L 144 268.5 L 144.5 267 Z " /><path fill="rgb(83,22,143)" stroke="rgb(83,22,143)" stroke-width="1" opacity="0.9921568627450981" d="M 348.5 267 L 348 268.5 L 344.5 273 L 347 269.5 L 348.5 267 Z " /><path fill="rgb(83,22,143)" stroke="rgb(83,22,143)" stroke-width="1" opacity="0.9921568627450981" d="M 146.5 271 L 147.5 273 L 146.5 271 Z " /><path fill="rgb(83,22,143)" stroke="rgb(83,22,143)" stroke-width="1" opacity="0.9921568627450981" d="M 148.5 274 L 152.5 279 L 148.5 274 Z " /><path fill="rgb(83,22,143)" stroke="rgb(83,22,143)" stroke-width="1" opacity="0.9921568627450981" d="M 340.5 276 L 338.5 279 L 340.5 276 Z " /><path fill="rgb(83,22,143)" stroke="rgb(83,22,143)" stroke-width="1" opacity="0.9921568627450981" d="M 154.5 279 L 155.5 281 L 154.5 279 Z " /><path fill="rgb(83,22,143)" stroke="rgb(83,22,143)" stroke-width="1" opacity="0.9921568627450981" d="M 336.5 279 L 335.5 281 L 330.5 283 L 330.5 282 L 336.5 279 Z " /><path fill="rgb(83,22,143)" stroke="rgb(83,22,143)" stroke-width="1" opacity="0.9921568627450981" d="M 326.5 283 L 329 283.5 L 326.5 284 L 326.5 283 Z " /><path fill="rgb(83,22,143)" stroke="rgb(83,22,143)" stroke-width="1" opacity="0.9921568627450981" d="M 166.5 284 L 324 284.5 L 166.5 285 L 166.5 284 Z " /><path fill="rgb(83,22,143)" stroke="rgb(83,22,143)" stroke-width="1" opacity="0.9921568627450981" d="M 223.5 415 L 294.5 415 L 296 416.5 L 294.5 416 L 223.5 416 L 221.5 418 L 223.5 415 Z " /><path fill="rgb(83,22,143)" stroke="rgb(83,22,143)" stroke-width="1" opacity="0.9921568627450981" d="M 296.5 418 L 297.5 420 L 296.5 418 Z " /><path fill="rgb(83,22,143)" stroke="rgb(83,22,143)" stroke-width="1" opacity="0.9921568627450981" d="M 220.5 419 L 219.5 421 L 220.5 419 Z " /><path fill="rgb(83,22,143)" stroke="rgb(83,22,143)" stroke-width="1" opacity="0.9921568627450981" d="M 298.5 421 L 299.5 423 L 298.5 421 Z " /><path fill="rgb(83,22,143)" stroke="rgb(83,22,143)" stroke-width="1" opacity="0.9921568627450981" d="M 218.5 422 L 217.5 424 L 218.5 422 Z " /><path fill="rgb(83,22,143)" stroke="rgb(83,22,143)" stroke-width="1" opacity="0.9921568627450981" d="M 300.5 424 L 305 429.5 L 302 427.5 L 300.5 424 Z " /><path fill="rgb(83,22,143)" stroke="rgb(83,22,143)" stroke-width="1" opacity="0.9921568627450981" d="M 216.5 425 L 215 427.5 L 212.5 431 L 214 428.5 L 216.5 425 Z " /><path fill="rgb(83,22,143)" stroke="rgb(83,22,143)" stroke-width="1" opacity="0.9921568627450981" d="M 305.5 431 L 306.5 433 L 305.5 431 Z " /><path fill="rgb(83,22,143)" stroke="rgb(83,22,143)" stroke-width="1" opacity="0.9921568627450981" d="M 211.5 432 L 210.5 434 L 211.5 432 Z " /><path fill="rgb(83,22,143)" stroke="rgb(83,22,143)" stroke-width="1" opacity="0.9921568627450981" d="M 307.5 434 L 308.5 436 L 307.5 434 Z " /><path fill="rgb(83,22,143)" stroke="rgb(83,22,143)" stroke-width="1" opacity="0.9921568627450981" d="M 209.5 435 L 208.5 437 L 209.5 435 Z " /><path fill="rgb(83,22,143)" stroke="rgb(83,22,143)" stroke-width="1" opacity="0.9921568627450981" d="M 309.5 437 L 310.5 439 L 309.5 437 Z " /><path fill="rgb(83,22,143)" stroke="rgb(83,22,143)" stroke-width="1" opacity="0.9921568627450981" d="M 207.5 438 L 206.5 440 L 207.5 438 Z " /><path fill="rgb(83,22,143)" stroke="rgb(83,22,143)" stroke-width="1" opacity="0.9921568627450981" d="M 311.5 440 L 316 445.5 L 313 443.5 L 311.5 440 Z " /><path fill="rgb(83,22,143)" stroke="rgb(83,22,143)" stroke-width="1" opacity="0.9921568627450981" d="M 205.5 441 L 204 443.5 L 201.5 447 L 203 444.5 L 205.5 441 Z " /><path fill="rgb(83,22,143)" stroke="rgb(83,22,143)" stroke-width="1" opacity="0.9921568627450981" d="M 316.5 447 L 317.5 449 L 316.5 447 Z " /><path fill="rgb(83,22,143)" stroke="rgb(83,22,143)" stroke-width="1" opacity="0.9921568627450981" d="M 200.5 448 L 199.5 450 L 200.5 448 Z " /><path fill="rgb(83,22,143)" stroke="rgb(83,22,143)" stroke-width="1" opacity="0.9921568627450981" d="M 318.5 450 L 319.5 452 L 318.5 450 Z " /><path fill="rgb(83,22,143)" stroke="rgb(83,22,143)" stroke-width="1" opacity="0.9921568627450981" d="M 198.5 451 L 197.5 453 L 198.5 451 Z " /><path fill="rgb(83,22,143)" stroke="rgb(83,22,143)" stroke-width="1" opacity="0.9921568627450981" d="M 320.5 453 L 321.5 455 L 320.5 453 Z " /><path fill="rgb(83,22,143)" stroke="rgb(83,22,143)" stroke-width="1" opacity="0.9921568627450981" d="M 149.5 466 L 363 466.5 L 149.5 467 L 149.5 466 Z " /><path fill="rgb(83,22,143)" stroke="rgb(83,22,143)" stroke-width="1" opacity="0.9921568627450981" d="M 149.5 483 L 363 483.5 L 149.5 484 L 149.5 483 Z " /><path fill="rgb(84,22,144)" stroke="rgb(84,22,144)" stroke-width="1" opacity="1" d="M 77.5 114 L 142 114 L 142 262.5 Q 144.6 273.4 152.5 279 L 161.5 284 L 166.5 285 L 323.5 285 Q 340.3 281.8 348 269.5 L 353 256.5 L 353 230.5 L 349.5 227 L 336 227 L 336 114.5 L 336.5 114 L 358 114 L 358 173.5 L 383.5 199 L 387.5 200 L 390.5 199 L 415 174.5 L 416 172.5 L 416 114 L 440.5 114 L 444.5 115 Q 452.6 117.9 457 124.5 L 460 131.5 L 460 335 L 57 335 L 57 134.5 Q 58.6 125 64.5 120 Q 69.3 115.3 77.5 114 Z " /><path fill="rgb(84,22,144)" stroke="rgb(84,22,144)" stroke-width="1" opacity="1" d="M 223.5 416 L 294.5 416 L 296 417.5 L 321 454.5 L 197 455 L 223.5 416 Z " /><path fill="rgb(0,0,0)" stroke="rgb(0,0,0)" stroke-width="1" opacity="1" d="M 363.5 23 L 410.5 23 L 414 25.5 L 415 27.5 L 415 103 L 443.5 103 L 447.5 104 Q 459.4 108.1 466 117.5 Q 470.5 124 472 133.5 L 472 383.5 Q 469.8 384.8 471 389.5 L 467 398.5 L 458.5 408 Q 451.9 413.4 441.5 415 L 308 415.5 L 336.5 456 L 366.5 456 Q 373.3 458.3 377 463.5 Q 380.8 468.2 381 476.5 Q 379.5 486.5 372.5 491 L 366.5 494 L 145.5 494 Q 138.8 491.8 135 486.5 Q 131.2 481.8 131 473.5 Q 132.5 463.5 139.5 459 L 145.5 456 L 181.5 456 L 184 453.5 L 210 415.5 L 76.5 415 Q 59.8 412.2 52 400.5 L 48 393.5 L 46 385.5 L 46 131.5 Q 48.8 118.3 57.5 111 Q 64.1 105.1 74.5 103 L 143 103 L 143 91.5 L 142.5 91 L 102.5 91 L 97 86.5 L 97 53.5 Q 99.4 41.4 107.5 35 L 120.5 29 L 306.5 29 Q 319.7 31.8 327 40.5 L 335 56.5 L 335 103 L 358.5 103 L 359 102.5 L 359 26.5 L 363.5 23 Z M 369 34 L 369 46 L 404 46 L 404 34 L 369 34 Z M 124 39 L 117 41 L 108 52 L 108 80 L 143 80 L 143 55 L 139 46 Q 135 39 124 39 Z M 147 39 L 153 53 L 153 260 L 156 267 L 163 272 L 171 274 L 181 271 Q 186 268 188 261 L 188 233 L 189 231 L 193 228 L 325 228 L 325 60 Q 324 51 319 47 Q 314 41 305 39 L 147 39 Z M 369 56 L 369 148 L 370 148 L 382 148 L 382 57 L 382 56 L 369 56 Z M 392 56 L 392 148 L 393 148 L 404 148 L 404 57 L 404 56 L 392 56 Z M 77 113 L 67 117 Q 58 122 56 135 L 56 336 L 461 336 L 461 131 L 457 123 Q 453 117 446 114 L 441 113 L 415 113 L 415 172 L 414 174 L 388 199 L 385 198 L 359 173 L 359 113 L 336 113 L 335 114 L 335 228 L 349 228 L 352 232 L 352 257 L 344 273 Q 337 281 324 284 L 167 284 L 155 279 Q 146 273 143 262 L 143 113 L 77 113 Z M 369 159 L 369 169 L 387 186 L 404 170 L 404 160 L 404 159 L 369 159 Z M 199 238 L 199 258 Q 197 267 193 274 L 320 274 Q 321 272 326 273 L 332 270 Q 340 265 342 254 L 342 239 L 342 238 L 199 238 Z M 56 347 L 56 384 L 60 395 Q 64 402 74 404 L 445 404 L 453 400 Q 459 396 461 387 L 461 348 L 461 347 L 56 347 Z M 223 415 L 195 455 L 196 456 L 323 456 L 296 417 L 296 415 L 223 415 Z M 149 466 L 146 467 L 142 472 L 143 481 L 148 484 L 365 484 L 367 483 L 370 479 L 369 470 L 364 466 L 149 466 Z " /><path fill="rgb(0,0,0)" stroke="rgb(0,0,0)" stroke-width="1" opacity="1" d="M 211.5 60 Q 217 59 218 62.5 L 218 67.5 L 195.5 90 L 189.5 91 L 176 77.5 L 176 72.5 Q 177 69 182.5 70 L 191.5 79 L 209.5 61 L 211.5 60 Z " /><path fill="rgb(0,0,0)" stroke="rgb(0,0,0)" stroke-width="1" opacity="1" d="M 239.5 74 L 284.5 74 L 289 77.5 L 290 79.5 L 287.5 84 L 285.5 85 L 237.5 85 Q 233 84 234 77.5 L 239.5 74 Z " /><path fill="rgb(0,0,0)" stroke="rgb(0,0,0)" stroke-width="1" opacity="1" d="M 179.5 109 L 212.5 109 L 215 111.5 L 216 113.5 L 216 142.5 L 212.5 147 L 179.5 147 L 178 145.5 L 177 143.5 L 177 112.5 L 179.5 109 Z M 187 119 L 187 137 L 205 137 L 205 119 L 187 119 Z " /><path fill="rgb(0,0,0)" stroke="rgb(0,0,0)" stroke-width="1" opacity="1" d="M 237.5 120 L 285.5 120 L 289 122.5 L 290 125.5 L 286.5 130 L 236.5 130 L 234 127.5 Q 233 121 237.5 120 Z " /><path fill="rgb(0,0,0)" stroke="rgb(0,0,0)" stroke-width="1" opacity="1" d="M 182.5 165 L 210.5 165 L 215 168.5 L 216 170.5 L 216 199.5 L 212.5 204 L 180.5 204 L 178 203 L 177 200.5 L 177 169.5 L 179.5 166 L 182.5 165 Z M 187 176 L 187 194 L 205 194 L 205 176 L 187 176 Z " /><path fill="rgb(0,0,0)" stroke="rgb(0,0,0)" stroke-width="1" opacity="1" d="M 237.5 177 L 286.5 177 L 289 179.5 L 290 182.5 L 286.5 187 L 237.5 187 L 235 186 L 234 180.5 L 235 178 L 237.5 177 Z " /><path fill="rgb(0,0,0)" stroke="rgb(0,0,0)" stroke-width="1" opacity="1" d="M 226.5 370 L 285.5 370 L 289 373.5 L 290 375.5 L 286.5 380 L 284.5 381 L 227.5 381 L 223 377.5 L 222 375.5 L 226.5 370 Z " /></svg>